<?xml version="1.0" encoding="utf-8"?>
<!-- Generator: Adobe Illustrator 16.0.0, SVG Export Plug-In . SVG Version: 6.00 Build 0)  -->
<!DOCTYPE svg PUBLIC "-//W3C//DTD SVG 1.1//EN" "http://www.w3.org/Graphics/SVG/1.1/DTD/svg11.dtd">
<svg version="1.1" id="레이어_1" xmlns="http://www.w3.org/2000/svg" xmlns:xlink="http://www.w3.org/1999/xlink" x="0px"
	 y="0px" width="500px" height="500px" viewBox="0 0 500 500" enable-background="new 0 0 500 500" xml:space="preserve">
<g>
	<linearGradient id="SVGID_1_" gradientUnits="userSpaceOnUse" x1="36.167" y1="250" x2="468.263" y2="250">
		<stop  offset="0" style="stop-color:#9ACA3C"/>
		<stop  offset="1" style="stop-color:#51A4DA"/>
	</linearGradient>
	<path fill="url(#SVGID_1_)" d="M423.64,13.666H76.359c-34.568,0-62.693,28.124-62.693,62.693v347.279
		c0,34.57,28.124,62.695,62.693,62.695h347.28c34.569,0,62.694-28.125,62.694-62.696V76.359
		C486.334,41.791,458.209,13.666,423.64,13.666z M452.334,423.638c0,15.822-12.872,28.695-28.694,28.695H76.359
		c-15.821,0-28.693-12.873-28.693-28.695V76.359c0-15.821,12.872-28.693,28.693-28.693h347.28c15.822,0,28.694,12.872,28.694,28.693
		V423.638z"/>
	<g>
		<linearGradient id="SVGID_2_" gradientUnits="userSpaceOnUse" x1="36.167" y1="333.666" x2="468.263" y2="333.666">
			<stop  offset="0" style="stop-color:#9ACA3C"/>
			<stop  offset="1" style="stop-color:#51A4DA"/>
		</linearGradient>
		<rect x="100" y="255" fill="url(#SVGID_2_)" width="14.771" height="157.332"/>
		<linearGradient id="SVGID_3_" gradientUnits="userSpaceOnUse" x1="36.167" y1="333.666" x2="468.263" y2="333.666">
			<stop  offset="0" style="stop-color:#9ACA3C"/>
			<stop  offset="1" style="stop-color:#51A4DA"/>
		</linearGradient>
		<rect x="214.773" y="255" fill="url(#SVGID_3_)" width="14.771" height="157.332"/>
		<linearGradient id="SVGID_4_" gradientUnits="userSpaceOnUse" x1="36.167" y1="333.666" x2="468.263" y2="333.666">
			<stop  offset="0" style="stop-color:#9ACA3C"/>
			<stop  offset="1" style="stop-color:#51A4DA"/>
		</linearGradient>
		<rect x="243.182" y="255" fill="url(#SVGID_4_)" width="14.772" height="157.332"/>
		<linearGradient id="SVGID_5_" gradientUnits="userSpaceOnUse" x1="36.167" y1="333.666" x2="468.263" y2="333.666">
			<stop  offset="0" style="stop-color:#9ACA3C"/>
			<stop  offset="1" style="stop-color:#51A4DA"/>
		</linearGradient>
		<rect x="327.273" y="255" fill="url(#SVGID_5_)" width="14.771" height="157.332"/>
		<linearGradient id="SVGID_6_" gradientUnits="userSpaceOnUse" x1="36.167" y1="333.666" x2="468.263" y2="333.666">
			<stop  offset="0" style="stop-color:#9ACA3C"/>
			<stop  offset="1" style="stop-color:#51A4DA"/>
		</linearGradient>
		<rect x="355.683" y="255" fill="url(#SVGID_6_)" width="14.772" height="157.332"/>
		<linearGradient id="SVGID_7_" gradientUnits="userSpaceOnUse" x1="36.167" y1="333.666" x2="468.263" y2="333.666">
			<stop  offset="0" style="stop-color:#9ACA3C"/>
			<stop  offset="1" style="stop-color:#51A4DA"/>
		</linearGradient>
		<rect x="385.229" y="255" fill="url(#SVGID_7_)" width="14.771" height="157.332"/>
		<linearGradient id="SVGID_8_" gradientUnits="userSpaceOnUse" x1="36.167" y1="333.666" x2="468.263" y2="333.666">
			<stop  offset="0" style="stop-color:#9ACA3C"/>
			<stop  offset="1" style="stop-color:#51A4DA"/>
		</linearGradient>
		<rect x="137.287" y="255" fill="url(#SVGID_8_)" width="55.895" height="157.332"/>
		<linearGradient id="SVGID_9_" gradientUnits="userSpaceOnUse" x1="36.167" y1="333.666" x2="468.263" y2="333.666">
			<stop  offset="0" style="stop-color:#9ACA3C"/>
			<stop  offset="1" style="stop-color:#51A4DA"/>
		</linearGradient>
		<rect x="275.923" y="255" fill="url(#SVGID_9_)" width="34.304" height="157.332"/>
	</g>
	<g>
		<linearGradient id="SVGID_10_" gradientUnits="userSpaceOnUse" x1="36.167" y1="170.3169" x2="468.263" y2="170.3169">
			<stop  offset="0" style="stop-color:#9ACA3C"/>
			<stop  offset="1" style="stop-color:#51A4DA"/>
		</linearGradient>
		<path fill="url(#SVGID_10_)" d="M308.778,137.393c-0.105-8.033-6.194-14.324-13.863-14.324c-2.036,0-4.039,0.451-5.953,1.34
			c-7.778,3.613-13.312,10.064-17.888,15.826c-0.303,0.383-0.65,0.738-1.055,1.123c0.062-0.834,0.123-1.648,0.184-2.448
			c0.264-3.476,0.513-6.761,0.543-10.011c0.02-1.974-0.615-3.666-1.831-4.894c-1.53-1.543-3.88-2.131-6.276-1.563
			c-2.673,0.634-5.938,2.811-6.326,9.569c-0.192,3.371-0.357,6.745-0.522,10.12c-0.405,8.286-0.821,16.855-1.676,25.219
			c-0.759,7.451-1.998,14.99-3.195,22.28c-0.542,3.304-1.085,6.606-1.587,9.913c-0.168,1.109-0.346,2.217-0.521,3.324
			c-0.436,2.727-0.887,5.547-1.203,8.346c-0.431,3.768,1.68,6.28,5.94,7.075c0.413,0.077,0.824,0.116,1.22,0.116
			c2.819,0,4.998-1.99,5.685-5.195c0.743-3.464,1.369-7.182,2.028-12.055c0.658-4.862,1.259-9.836,1.838-14.645
			c0.195-1.619,0.393-3.242,0.592-4.871c0.461,0.142,0.908,0.283,1.346,0.422c1.652,0.526,3.215,1.023,4.826,1.237
			c5.402,0.72,10.717-0.967,16.366-5.218C302.015,167.116,308.992,153.807,308.778,137.393z M294.973,141.333
			c-0.736,11.231-6.236,18.551-11.529,24.233c-1.269,1.361-2.848,2.517-4.377,3.634c-0.459,0.337-0.918,0.672-1.371,1.014
			c-2.607,1.97-5.258,1.626-7.842-0.926c-1.75-1.726-1.101-3.53,0.104-6.331l0.225-0.523c4.41-10.406,10.397-18.269,18.301-24.037
			c1.098-0.802,2.847-1.453,3.898-1.453c0.373,0,0.52,0.078,0.557,0.102c0.853,0.568,1.346,2.143,1.705,3.293
			C294.758,140.712,294.863,141.047,294.973,141.333z"/>
		<linearGradient id="SVGID_11_" gradientUnits="userSpaceOnUse" x1="36.167" y1="144.0947" x2="468.263" y2="144.0947">
			<stop  offset="0" style="stop-color:#9ACA3C"/>
			<stop  offset="1" style="stop-color:#51A4DA"/>
		</linearGradient>
		<path fill="url(#SVGID_11_)" d="M122.671,103.364c-6.625-2.64-13.832-1.624-22.342,3.25c-8.808,5.044-16.317,12.38-22.32,21.805
			C70.992,139.434,66.307,149.375,66.25,162c-1.217,13.238,8.538,22.117,18.334,23.75c1.965,0.328,4.031,0.495,6.139,0.495
			c3.01,0,6.014-0.331,8.93-0.983c7.473-1.674,14.394-5.877,20.568-12.492c2.639-2.824,3.02-5.679,1.072-8.035
			c-0.909-1.102-1.965-1.66-3.136-1.66c-1.458,0-2.804,0.857-4.167,1.814c-4.621,3.244-10.258,6.809-17.021,8.641
			c-1.738,0.471-3.398,0.709-4.938,0.709c-3.694,0-8.441-1.36-10.069-7.842c-1.017-4.045-0.972-9.084,0.117-13.482
			c2.239-9.038,6.925-17.823,13.929-26.112c4.856-5.747,10.262-11.504,18.193-13.254c1.453-0.321,2.441-0.222,2.904,0.302
			c0.444,0.504,0.584,1.539,0.402,2.993c-0.148,1.183-0.34,2.358-0.531,3.535c-0.248,1.524-0.504,3.101-0.662,4.677
			c-0.205,2.045,0.293,3.85,1.406,5.078c1.491,1.65,3.975,2.061,6.441,1.029c2.958-1.232,5.541-4.23,6.908-8.018
			c1.451-4.017,1.328-8.144-0.336-11.321C129.92,110.268,126.93,105.059,122.671,103.364z"/>
		<linearGradient id="SVGID_12_" gradientUnits="userSpaceOnUse" x1="36.167" y1="155.7798" x2="468.263" y2="155.7798">
			<stop  offset="0" style="stop-color:#9ACA3C"/>
			<stop  offset="1" style="stop-color:#51A4DA"/>
		</linearGradient>
		<path fill="url(#SVGID_12_)" d="M428.629,167.646c-0.285-0.017-0.57-0.024-0.854-0.031c-1.877-0.051-2.651-0.135-2.954-1.733
			c-0.444-2.356-0.845-4.771-1.231-7.104c-0.335-2.022-0.67-4.045-1.038-6.062c-0.21-1.153-0.399-2.317-0.588-3.479
			c-0.522-3.215-1.063-6.537-2.064-9.68c-1.803-5.652-6.378-9.162-11.94-9.162c-1.655,0-3.339,0.307-5.009,0.91
			c-5.353,1.939-8.83,6.125-11.525,9.965c-1.841,2.623-3.524,5.414-5.152,8.114c-0.167,0.278-0.335,0.556-0.504,0.834
			c0.003-0.022,0.005-0.046,0.006-0.069c0.095-1.31,0.199-2.619,0.305-3.931c0.329-4.12,0.671-8.381,0.659-12.59
			c-0.007-3.153-2.71-5.508-5.123-5.508c-0.812,0-1.578,0.254-2.221,0.733c-2.368,1.775-5.008,4.646-5.311,7.381
			c-1.152,10.422-1.892,21.059-2.608,31.347c-0.167,2.39-0.333,4.778-0.504,7.167c-0.161,2.223,0.106,3.652,0.839,4.504
			c1.598,1.862,3.439,3.241,5.186,3.884c0.544,0.201,1.089,0.304,1.618,0.304c1.873,0,3.438-1.227,4.405-3.451l0.821-1.903
			c1.485-3.455,3.02-7.026,4.977-10.185c5.394-8.705,9.753-15.183,14.134-21.006c0.888-1.182,1.842-1.858,2.613-1.858
			c0.984,0,1.816,1.155,2.225,3.091c1.089,5.166,1.96,10.486,2.802,15.631c0.366,2.237,0.732,4.475,1.117,6.706
			c0.819,4.755,5.038,9.462,9.027,10.072c4.563,0.702,8.664-1.164,11.713-5.298c1.057-1.432,1.804-3.977,1.168-5.588
			C433.051,168.209,430.592,167.766,428.629,167.646z"/>
		<linearGradient id="SVGID_13_" gradientUnits="userSpaceOnUse" x1="36.167" y1="154.8545" x2="468.263" y2="154.8545">
			<stop  offset="0" style="stop-color:#9ACA3C"/>
			<stop  offset="1" style="stop-color:#51A4DA"/>
		</linearGradient>
		<path fill="url(#SVGID_13_)" d="M363.534,137.822c-2.899-7.583-10.527-12.879-18.549-12.879c-2.691,0-5.255,0.589-7.617,1.75
			c-16.922,8.312-20.945,24.41-21.896,31.016c-0.665,9.023,1.522,16.74,6.159,21.732c3.189,3.433,7.361,5.324,11.746,5.324
			c1.857,0,3.718-0.338,5.531-1.002c7.783-2.854,13.904-7.404,18.716-13.91C365.791,158.813,367.669,148.634,363.534,137.822z
			 M337.242,171.598c-1.169,0.579-2.254,0.873-3.225,0.873c-0.001,0-0.001,0-0.001,0c-1.123,0-2.091-0.4-2.877-1.193
			c-1.518-1.528-2.338-4.469-2.311-8.252c0.279-8.08,3.139-15.426,8.501-21.836c2.023-2.42,4.258-3.648,6.64-3.648
			c0.647,0,1.315,0.092,1.988,0.273c3.067,0.83,4.668,3.134,5.355,7.703C352.913,156.145,347.258,166.626,337.242,171.598z"/>
		<linearGradient id="SVGID_14_" gradientUnits="userSpaceOnUse" x1="36.167" y1="154.8022" x2="468.263" y2="154.8022">
			<stop  offset="0" style="stop-color:#9ACA3C"/>
			<stop  offset="1" style="stop-color:#51A4DA"/>
		</linearGradient>
		<path fill="url(#SVGID_14_)" d="M152.811,184.779c0.978,0,1.969-0.073,2.948-0.221c14.378-2.166,30.099-20.48,29.503-34.459
			c-0.138-1.148-0.205-2.365-0.271-3.541c-0.149-2.672-0.304-5.433-1.271-7.884c-3.472-8.802-10.121-13.85-18.246-13.85
			c-4.259,0-8.598,1.44-12.547,4.167c-11.728,8.098-17.97,20.47-18.053,35.779c-0.032,6.193,1.848,11.375,5.438,14.984
			C143.537,182.995,147.975,184.779,152.811,184.779z M157.611,140.807c1.953-2.197,3.949-3.266,6.097-3.266
			c0.717,0,1.467,0.122,2.228,0.363c3.072,0.964,4.676,3.309,5.363,7.841c1.746,11.526-5.896,21.771-14.348,25.933
			c-1.014,0.499-2.002,0.752-2.938,0.752c-2.91,0-4.988-2.486-5.298-6.332c-0.06-0.75-0.044-1.513-0.026-2.32
			c0.009-0.381,0.017-0.762,0.017-1.119C148.877,154.613,151.873,147.261,157.611,140.807z"/>
		<linearGradient id="SVGID_15_" gradientUnits="userSpaceOnUse" x1="36.167" y1="156.0024" x2="468.263" y2="156.0024">
			<stop  offset="0" style="stop-color:#9ACA3C"/>
			<stop  offset="1" style="stop-color:#51A4DA"/>
		</linearGradient>
		<path fill="url(#SVGID_15_)" d="M242.339,176.137c-0.289-0.455-0.612-0.912-0.94-1.371c-0.847-1.186-1.721-2.412-1.84-3.55
			c-0.582-5.493-1.115-11.333-0.73-17.036c0.232-3.449,0.945-6.951,1.633-10.338c0.436-2.144,0.887-4.361,1.219-6.566
			c0.325-2.17,0.932-6.209-3.087-7.316c-1.024-0.281-1.927-0.42-2.756-0.42c-2.68,0-4.519,1.434-5.463,4.258
			c-0.394,1.172-0.778,2.348-1.165,3.525c-1.412,4.298-2.87,8.742-4.62,12.945c-3.347,8.047-8.226,14.383-14.5,18.832
			c-0.87,0.617-1.696,0.944-2.392,0.944c-1.824,0-2.082-2.303-2.109-3.294c-0.085-3.182,0.077-5.729,0.512-8.018
			c1.318-6.975,2.873-14.026,4.375-20.847l0.137-0.62c0.587-2.66,0.227-5.255-0.985-7.117c-0.874-1.342-2.122-2.211-3.606-2.512
			c-0.621-0.125-1.23-0.188-1.813-0.188c-3.846,0-6.514,2.714-7.137,7.258c-0.172,1.26-0.377,2.517-0.582,3.772
			c-0.275,1.688-0.561,3.435-0.762,5.172c-0.271,2.351-0.568,4.699-0.865,7.05c-0.807,6.383-1.643,12.985-1.928,19.524
			c-0.151,3.445,1.1,6.737,3.521,9.268c2.729,2.85,6.63,4.253,10.328,3.703c3.52-0.525,6.957-2.053,9.195-4.088
			c2.987-2.717,5.662-5.903,8.246-8.984c0.67-0.799,1.344-1.602,2.023-2.396c0.1,0.469,0.197,0.938,0.296,1.408
			c0.524,2.51,1.069,5.106,1.863,7.608c1.227,3.864,3.003,7.813,6.872,7.813c1.375,0,2.945-0.476,5.091-1.541
			c1.073-0.533,2.55-1.416,2.968-2.916C243.654,178.967,243.337,177.707,242.339,176.137z"/>
	</g>
</g>
</svg>
