<?xml version="1.0" encoding="utf-8"?>
<!-- Generator: Adobe Illustrator 16.0.0, SVG Export Plug-In . SVG Version: 6.00 Build 0)  -->
<!DOCTYPE svg PUBLIC "-//W3C//DTD SVG 1.1//EN" "http://www.w3.org/Graphics/SVG/1.1/DTD/svg11.dtd">
<svg version="1.1" id="레이어_1" xmlns="http://www.w3.org/2000/svg" xmlns:xlink="http://www.w3.org/1999/xlink" x="0px"
	 y="0px" width="500px" height="500px" viewBox="0 0 500 500" enable-background="new 0 0 500 500" xml:space="preserve">
<g>
	<g>
		<path d="M-295.334,495c-135.094,0-245-109.906-245-245c0-135.093,109.906-245,245-245c135.092,0,245,109.906,245,245
			C-50.334,385.094-160.242,495-295.334,495z M-295.334,59.444c-105.072,0-190.556,85.483-190.556,190.556
			s85.483,190.557,190.556,190.557S-104.779,355.072-104.779,250S-190.262,59.444-295.334,59.444z"/>
	</g>
	<path d="M-201.191,220.51h-64.828v-61.489c0.111-1.039,0.174-2.094,0.174-3.164c0-16.287-13.203-29.491-29.488-29.491
		s-29.488,13.204-29.488,29.491v64.653h-61.459v0.179c-1.051-0.113-2.115-0.179-3.197-0.179c-16.285,0-29.488,13.203-29.488,29.49
		c0,16.287,13.203,29.49,29.488,29.49c1.082,0,2.146-0.066,3.197-0.182v0.006h61.459v61.633h0.178
		c-0.113,1.049-0.178,2.115-0.178,3.197c0,16.285,13.203,29.488,29.488,29.488s29.488-13.203,29.488-29.488
		c0-1.082-0.066-2.148-0.178-3.197h0.004v-61.633h61.664c1.041,0.111,2.094,0.176,3.164,0.176c16.285,0,29.488-13.203,29.488-29.49
		C-171.703,233.713-184.906,220.51-201.191,220.51z"/>
</g>
<g>
	<g>
		<path d="M376.038,495H123.96c-32.358,0-58.684-26.325-58.684-58.683V161.762c0-32.358,26.325-58.685,58.684-58.685h252.078
			c32.36,0,58.686,26.326,58.686,58.685v274.556C434.724,468.675,408.398,495,376.038,495z M123.96,124.872
			c-20.34,0-36.89,16.549-36.89,36.89v274.556c0,20.34,16.55,36.889,36.89,36.889h252.078c20.342,0,36.892-16.549,36.892-36.889
			V161.762c0-20.341-16.55-36.89-36.892-36.89H123.96z"/>
	</g>
	<g>
		<path d="M321.672,68.856H307.25c0.064-1.14,0.105-2.286,0.105-3.441C307.355,32.049,280.307,5,246.939,5
			c-33.365,0-60.412,27.049-60.412,60.415c0,1.156,0.039,2.301,0.104,3.441h-8.303c-26.938,0-48.773,21.837-48.773,48.774v53.317
			h240.891V117.63C370.445,90.693,348.607,68.856,321.672,68.856z M214.059,65.415c0-18.162,14.721-32.884,32.881-32.884
			c18.162,0,32.887,14.723,32.887,32.884c0,1.163-0.064,2.31-0.182,3.441c-1.721,16.543-15.705,29.441-32.705,29.441
			c-16.998,0-30.982-12.898-32.703-29.441C214.119,67.725,214.059,66.578,214.059,65.415z"/>
	</g>
	<g>
		<g>
			<rect x="129.556" y="208.801" width="60.413" height="60.414"/>
		</g>
		<g>
			<rect x="228.206" y="229.449" width="142.238" height="19.119"/>
		</g>
		<g>
			<rect x="129.556" y="288.333" width="60.413" height="60.415"/>
		</g>
		<g>
			<rect x="228.206" y="308.98" width="142.238" height="19.12"/>
		</g>
		<g>
			<rect x="129.556" y="367.865" width="60.413" height="60.413"/>
		</g>
		<g>
			<rect x="228.206" y="388.513" width="142.238" height="19.118"/>
		</g>
	</g>
</g>
</svg>
