<svg id="Filled" height="512" viewBox="0 0 512 512" width="512" xmlns="http://www.w3.org/2000/svg"><path d="m128 40h360v32h-360z" fill="#e74444"/><path d="m128 72h360v32h-360z" fill="#ce3536"/><path d="m192 24a16 16 0 0 1 16 16v256a0 0 0 0 1 0 0h-32a0 0 0 0 1 0 0v-256a16 16 0 0 1 16-16z" fill="#fdd14b"/><path d="m208 72h32v256h-32z" fill="#fdd14b"/><path d="m304 72h32v256h-32z" fill="#fdd14b"/><path d="m256 24a16 16 0 0 1 16 16v256a0 0 0 0 1 0 0h-32a0 0 0 0 1 0 0v-256a16 16 0 0 1 16-16z" fill="#fdd14b"/><path d="m288 24a16 16 0 0 1 16 16v256a0 0 0 0 1 0 0h-32a0 0 0 0 1 0 0v-256a16 16 0 0 1 16-16z" fill="#fdd14b"/><path d="m200 448h112a0 0 0 0 1 0 0v24a16 16 0 0 1 -16 16h-80a16 16 0 0 1 -16-16v-24a0 0 0 0 1 0 0z" fill="#93573d"/><path d="m74.024 161.67h16a32 32 0 0 1 32 32v160a0 0 0 0 1 0 0h-48a0 0 0 0 1 0 0v-192a0 0 0 0 1 0 0z" fill="#ce3536" transform="matrix(.825 -.565 .565 .825 -128.394 100.388)"/><g fill="#fdd14b"><circle cx="144" cy="312" r="80"/><circle cx="144" cy="312" r="48"/><circle cx="368" cy="312" r="80"/><circle cx="368" cy="312" r="48"/><circle cx="256" cy="312" r="80"/><circle cx="256" cy="312" r="48"/></g><path d="m48 296h416a0 0 0 0 1 0 0v32a128 128 0 0 1 -128 128h-160a128 128 0 0 1 -128-128v-32a0 0 0 0 1 0 0z" fill="#ab6647"/><path d="m48 296h416v32h-416z" fill="#e74444"/><path d="m488 32h-177.362a23.989 23.989 0 0 0 -38.622-9.883 24.006 24.006 0 0 0 -38.64 9.883h-18.738a24.005 24.005 0 0 0 -45.262 0h-41.376a8 8 0 0 0 -8 8v64a8 8 0 0 0 8 8h40v115.324a88.318 88.318 0 0 0 -24-3.324 87.378 87.378 0 0 0 -27.257 4.368l-28.46-41.585a40.046 40.046 0 0 0 -55.6-10.424l-13.2 9.04a8 8 0 0 0 -2.081 11.12l49.734 72.662a87.084 87.084 0 0 0 -7.794 18.819h-11.342a8 8 0 0 0 -8 8v32c0 74.99 61.009 136 136 136h16v8a24.028 24.028 0 0 0 24 24h80a24.028 24.028 0 0 0 24-24v-8h16c74.991 0 136-61.01 136-136v-32a8 8 0 0 0 -8-8h-11.342a88.04 88.04 0 0 0 -108.658-60.676v-115.324h144a8 8 0 0 0 8-8v-64a8 8 0 0 0 -8-8zm-176 32v-16h168v16zm27.432 220.02a39.691 39.691 0 0 1 28.568-12.02 40.092 40.092 0 0 1 32 16h-59.342q-.57-2.011-1.226-3.98zm-32.832 3.98a56.006 56.006 0 0 0 -101.2 0h-17.287a72.007 72.007 0 0 1 135.774 0zm-18.6 0h-64a40 40 0 0 1 64 0zm-116.66 0h-59.34a39.965 39.965 0 0 1 60.566-3.967q-.659 1.967-1.224 3.967zm60.66-224h-16v-16h16zm0 16v147.373a87.992 87.992 0 0 0 -16 6.3v-153.673zm56-48a7.977 7.977 0 0 1 8 8v193.675a87.992 87.992 0 0 0 -16-6.3v-187.375a8.009 8.009 0 0 1 8-8zm-32 0a7.977 7.977 0 0 1 8 8v184.371c-2.64-.242-5.308-.371-8-.371s-5.36.129-8 .371v-184.371a8.009 8.009 0 0 1 8-8zm-120 16h32v16h-32zm0 48v-16h32v16zm48-56a8 8 0 1 1 16 0v204.136a87.711 87.711 0 0 0 -16-10.54zm-148.881 154.081 6.6-4.518a24.028 24.028 0 0 1 33.361 6.255l26.72 39.042a88.822 88.822 0 0 0 -24.886 20.282zm108.881 45.919a71.513 71.513 0 0 1 44.615 15.5 87.968 87.968 0 0 0 -9.185 13.175 55.958 55.958 0 0 0 -86.03 19.325h-17.287a72.245 72.245 0 0 1 67.887-48zm160 232a8.009 8.009 0 0 1 -8 8h-80a8.009 8.009 0 0 1 -8-8v-8h96zm32-24h-160a120.151 120.151 0 0 1 -119.727-112h399.454a120.151 120.151 0 0 1 -119.727 112zm120-128h-400v-16h400zm-20.113-32h-17.287a56 56 0 0 0 -86.045-19.356 87.963 87.963 0 0 0 -9.17-13.149 71.513 71.513 0 0 1 44.615-15.495 72.245 72.245 0 0 1 67.887 48zm-123.887-43.864v-164.136h16v153.6a87.711 87.711 0 0 0 -16 10.536zm32-148.136v-16h136v16z"/></svg>