<?xml version="1.0" encoding="utf-8"?>
<!-- Generator: Adobe Illustrator 16.0.0, SVG Export Plug-In . SVG Version: 6.00 Build 0)  -->
<!DOCTYPE svg PUBLIC "-//W3C//DTD SVG 1.1//EN" "http://www.w3.org/Graphics/SVG/1.1/DTD/svg11.dtd">
<svg version="1.1" id="레이어_1" xmlns="http://www.w3.org/2000/svg" xmlns:xlink="http://www.w3.org/1999/xlink" x="0px"
	 y="0px" width="500px" height="500px" viewBox="0 0 500 500" enable-background="new 0 0 500 500" xml:space="preserve">
<g>
	<g>
		<path d="M-88.837,198.039l-34.744-5.894c-3.619-11.685-8.272-22.956-13.96-33.71l20.475-28.643
			c8.686-12.202,7.342-28.85-3.31-39.397l-30.814-30.814c-5.79-5.791-13.442-8.996-21.61-8.996c-6.412,0-12.513,1.965-17.684,5.688
			l-28.745,20.474c-11.169-5.894-22.854-10.754-34.951-14.373l-5.791-34.33c-2.481-14.787-15.201-25.541-30.194-25.541h-43.532
			c-14.994,0-27.712,10.754-30.195,25.541l-5.997,35.157c-11.581,3.619-22.852,8.376-33.606,14.166l-28.436-20.474
			c-5.171-3.723-11.376-5.688-17.785-5.688c-8.169,0-15.925,3.206-21.612,8.996l-30.918,30.814
			c-10.547,10.548-11.995,27.195-3.309,39.397l20.68,29.057c-5.686,10.857-10.236,22.128-13.752,33.813l-34.33,5.792
			c-14.786,2.48-25.541,15.199-25.541,30.193v43.533c0,14.993,10.755,27.713,25.541,30.193l35.157,5.998
			c3.619,11.58,8.376,22.853,14.167,33.605l-20.371,28.333c-8.686,12.203-7.342,28.85,3.309,39.397l30.814,30.815
			c5.791,5.791,13.443,8.995,21.612,8.995c6.411,0,12.511-1.965,17.682-5.687l29.056-20.682
			c10.445,5.481,21.405,9.927,32.676,13.444l5.791,34.742c2.482,14.786,15.201,25.541,30.195,25.541h43.636
			c14.994,0,27.713-10.755,30.195-25.541l5.894-34.742c11.685-3.62,22.955-8.274,33.71-13.961l28.643,20.475
			c5.17,3.723,11.375,5.687,17.786,5.687l0,0c8.168,0,15.82-3.206,21.611-8.997l30.813-30.813
			c10.548-10.548,11.995-27.196,3.31-39.396l-20.474-28.747c5.687-10.857,10.443-22.128,13.96-33.71l34.743-5.791
			c14.787-2.481,25.541-15.2,25.541-30.193v-43.533C-63.296,213.239-74.051,200.521-88.837,198.039z M-91.215,271.767
			c0,1.344-0.932,2.48-2.275,2.688l-43.431,7.239c-5.479,0.931-9.823,4.964-11.167,10.236c-3.929,15.2-9.927,29.781-17.992,43.326
			c-2.792,4.757-2.585,10.652,0.62,15.202l25.541,35.984c0.724,1.034,0.62,2.585-0.31,3.515l-30.815,30.816
			c-0.724,0.723-1.447,0.825-1.964,0.825c-0.621,0-1.139-0.207-1.552-0.517l-35.881-25.54c-4.446-3.206-10.444-3.413-15.201-0.621
			c-13.546,8.065-28.126,14.063-43.326,17.992c-5.377,1.344-9.409,5.791-10.236,11.168l-7.342,43.431
			c-0.207,1.344-1.345,2.274-2.689,2.274h-43.533c-1.344,0-2.48-0.931-2.688-2.274l-7.239-43.431
			c-0.93-5.481-4.964-9.824-10.236-11.168c-14.787-3.827-29.057-9.721-42.396-17.371c-2.172-1.242-4.652-1.862-7.031-1.862
			c-2.791,0-5.688,0.827-8.066,2.585l-36.19,25.748c-0.517,0.312-1.034,0.518-1.551,0.518c-0.414,0-1.241-0.104-1.965-0.827
			l-30.814-30.815c-0.931-0.931-1.034-2.379-0.311-3.516l25.438-35.675c3.205-4.55,3.411-10.546,0.62-15.303
			c-8.065-13.444-14.27-28.023-18.199-43.224c-1.447-5.274-5.791-9.306-11.166-10.236l-43.742-7.446
			c-1.344-0.207-2.274-1.344-2.274-2.688v-43.533c0-1.344,0.931-2.481,2.274-2.688l43.121-7.238
			c5.479-0.931,9.927-4.964,11.271-10.341c3.825-15.2,9.72-29.884,17.682-43.43c2.792-4.757,2.481-10.65-0.724-15.097
			l-25.748-36.191c-0.723-1.034-0.619-2.586,0.312-3.517l30.813-30.813c0.725-0.725,1.448-0.828,1.965-0.828
			c0.621,0,1.138,0.207,1.551,0.518l35.674,25.438c4.551,3.205,10.549,3.412,15.305,0.62c13.443-8.065,28.023-14.27,43.225-18.199
			c5.272-1.447,9.306-5.791,10.236-11.167l7.443-43.74c0.207-1.345,1.346-2.275,2.689-2.275h43.533c1.344,0,2.482,0.931,2.688,2.275
			l7.239,43.119c0.93,5.48,4.963,9.927,10.34,11.271c15.614,3.929,30.504,10.03,44.36,18.199c4.757,2.792,10.651,2.585,15.201-0.62
			l35.674-25.645c0.517-0.311,1.034-0.518,1.552-0.518c0.413,0,1.24,0.104,1.964,0.827l30.815,30.814
			c0.93,0.931,1.033,2.379,0.31,3.517l-25.541,35.881c-3.205,4.446-3.412,10.443-0.62,15.2
			c8.065,13.547,14.063,28.126,17.992,43.327c1.344,5.376,5.791,9.409,11.167,10.236l43.431,7.342
			c1.344,0.207,2.275,1.345,2.275,2.688v43.533H-91.215z"/>
		<path d="M-310.949,143.132c-58.941,0-106.818,47.876-106.818,106.816c0,58.939,47.877,106.817,106.818,106.817
			c58.94,0,106.816-47.878,106.816-106.817C-204.133,191.008-252.009,143.132-310.949,143.132z M-310.949,328.846
			c-43.533,0-78.898-35.365-78.898-78.897c0-43.533,35.365-78.897,78.898-78.897c43.532,0,78.896,35.364,78.896,78.897
			C-232.053,293.48-267.417,328.846-310.949,328.846z"/>
	</g>
</g>
<g>
	<g>
		<path fill="#939598" d="M472.163,198.039l-34.744-5.894c-3.619-11.685-8.272-22.956-13.96-33.71l20.475-28.643
			c8.686-12.202,7.342-28.85-3.31-39.397L409.81,59.581c-5.79-5.791-13.442-8.996-21.61-8.996c-6.412,0-12.513,1.965-17.684,5.688
			l-28.745,20.474c-11.169-5.894-22.854-10.754-34.951-14.373l-5.791-34.33c-2.481-14.787-15.201-25.541-30.194-25.541h-43.532
			c-14.994,0-27.712,10.754-30.195,25.541L191.109,63.2c-11.581,3.619-22.852,8.376-33.606,14.166l-28.436-20.474
			c-5.171-3.723-11.376-5.688-17.785-5.688c-8.169,0-15.925,3.206-21.612,8.996L58.752,91.016
			c-10.547,10.548-11.995,27.195-3.309,39.397l20.68,29.057c-5.686,10.857-10.236,22.128-13.752,33.813l-34.33,5.792
			C13.255,201.555,2.5,214.273,2.5,229.268v43.533c0,14.993,10.755,27.713,25.541,30.193l35.157,5.998
			c3.619,11.58,8.376,22.853,14.167,33.605l-20.371,28.333c-8.686,12.203-7.342,28.85,3.309,39.397l30.814,30.815
			c5.791,5.791,13.443,8.995,21.612,8.995c6.411,0,12.511-1.965,17.682-5.687l29.056-20.682
			c10.445,5.481,21.405,9.927,32.676,13.444l5.791,34.742c2.482,14.786,15.201,25.541,30.195,25.541h43.636
			c14.994,0,27.713-10.755,30.195-25.541l5.894-34.742c11.685-3.62,22.955-8.274,33.71-13.961l28.643,20.475
			c5.17,3.723,11.375,5.687,17.786,5.687l0,0c8.168,0,15.82-3.206,21.611-8.997l30.813-30.813
			c10.548-10.548,11.995-27.196,3.31-39.396l-20.474-28.747c5.687-10.857,10.443-22.128,13.96-33.71l34.743-5.791
			c14.787-2.481,25.541-15.2,25.541-30.193v-43.533C497.704,213.239,486.949,200.521,472.163,198.039z M469.785,271.767
			c0,1.344-0.932,2.48-2.275,2.688l-43.431,7.239c-5.479,0.931-9.823,4.964-11.167,10.236c-3.929,15.2-9.927,29.781-17.992,43.326
			c-2.792,4.757-2.585,10.652,0.62,15.202l25.541,35.984c0.724,1.034,0.62,2.585-0.31,3.515l-30.815,30.816
			c-0.724,0.723-1.447,0.825-1.964,0.825c-0.621,0-1.139-0.207-1.552-0.517l-35.881-25.54c-4.446-3.206-10.444-3.413-15.201-0.621
			c-13.546,8.065-28.126,14.063-43.326,17.992c-5.377,1.344-9.409,5.791-10.236,11.168l-7.342,43.431
			c-0.207,1.344-1.345,2.274-2.689,2.274h-43.533c-1.344,0-2.48-0.931-2.688-2.274l-7.239-43.431
			c-0.93-5.481-4.964-9.824-10.236-11.168c-14.787-3.827-29.057-9.721-42.396-17.371c-2.172-1.242-4.652-1.862-7.031-1.862
			c-2.791,0-5.688,0.827-8.066,2.585l-36.19,25.748c-0.517,0.312-1.034,0.518-1.551,0.518c-0.414,0-1.241-0.104-1.965-0.827
			l-30.814-30.815c-0.931-0.931-1.034-2.379-0.311-3.516l25.438-35.675c3.205-4.55,3.411-10.546,0.62-15.303
			c-8.065-13.444-14.27-28.023-18.199-43.224c-1.447-5.274-5.791-9.306-11.166-10.236l-43.742-7.446
			c-1.344-0.207-2.274-1.344-2.274-2.688v-43.533c0-1.344,0.931-2.481,2.274-2.688l43.121-7.238
			c5.479-0.931,9.927-4.964,11.271-10.341c3.825-15.2,9.72-29.884,17.682-43.43c2.792-4.757,2.481-10.65-0.724-15.097
			l-25.748-36.191c-0.723-1.034-0.619-2.586,0.312-3.517l30.813-30.813c0.725-0.725,1.448-0.828,1.965-0.828
			c0.621,0,1.138,0.207,1.551,0.518l35.674,25.438c4.551,3.205,10.549,3.412,15.305,0.62c13.443-8.065,28.023-14.27,43.225-18.199
			c5.272-1.447,9.306-5.791,10.236-11.167l7.443-43.74c0.207-1.345,1.346-2.275,2.689-2.275h43.533c1.344,0,2.482,0.931,2.688,2.275
			l7.239,43.119c0.93,5.48,4.963,9.927,10.34,11.271c15.614,3.929,30.504,10.03,44.36,18.199c4.757,2.792,10.651,2.585,15.201-0.62
			l35.674-25.645c0.517-0.311,1.034-0.518,1.552-0.518c0.413,0,1.24,0.104,1.964,0.827l30.815,30.814
			c0.93,0.931,1.033,2.379,0.31,3.517l-25.541,35.881c-3.205,4.446-3.412,10.443-0.62,15.2
			c8.065,13.547,14.063,28.126,17.992,43.327c1.344,5.376,5.791,9.409,11.167,10.236l43.431,7.342
			c1.344,0.207,2.275,1.345,2.275,2.688v43.533H469.785z"/>
		<path fill="#939598" d="M250.051,143.132c-58.941,0-106.818,47.876-106.818,106.816c0,58.939,47.877,106.817,106.818,106.817
			c58.94,0,106.816-47.878,106.816-106.817C356.867,191.008,308.991,143.132,250.051,143.132z M250.051,328.846
			c-43.533,0-78.898-35.365-78.898-78.897c0-43.533,35.365-78.897,78.898-78.897c43.532,0,78.896,35.364,78.896,78.897
			C328.947,293.48,293.583,328.846,250.051,328.846z"/>
	</g>
</g>
<g>
	<path fill="none" d="M-268.688,609.522h-84.688c-6.864,0-12.481,5.616-12.481,12.48v17.162h109.652v-17.162
		C-256.205,615.139-261.821,609.522-268.688,609.522z"/>
	<path d="M-162.406,639.165h-68.773v-23.401c0-17.225-13.979-31.205-31.203-31.205h-97.233c-17.226,0-31.204,13.98-31.204,31.205
		v23.401h-68.773c-25.402,0-45.995,9.776-45.995,35.178v10.296c0,25.401,15.185,23.278,40.587,23.278h308.004
		c25.402,0,40.587,2.123,40.587-23.278v-10.296C-116.411,648.941-137.005,639.165-162.406,639.165z M-365.857,622.003
		c0-6.864,5.617-12.48,12.481-12.48h84.688c6.866,0,12.482,5.616,12.482,12.48v17.162h-109.652V622.003z"/>
	<path d="M-481.915,1033.563c0,25.402,19.661,45.995,43.913,45.995c73.103,0,180.902,0,254.004,0
		c24.253,0,43.913-20.593,43.913-45.995c0-96.938,0-277.949,0-308.339h-341.83C-481.915,755.614-481.915,936.626-481.915,1033.563z
		 M-246.754,761.16c0-7.779,5.526-14.134,12.378-14.134h0.266c6.813,0,12.377,6.312,12.377,14.134v211.714
		c0,7.779-5.526,14.133-12.377,14.133h-0.266c-6.814,0-12.378-6.312-12.378-14.133V761.16z M-323.512,761.16
		c0-7.779,5.527-14.134,12.379-14.134h0.266c6.813,0,12.377,6.312,12.377,14.134v211.714c0,7.779-5.526,14.133-12.377,14.133h-0.266
		c-6.813,0-12.379-6.312-12.379-14.133V761.16z M-400.268,761.16c0-7.779,5.526-14.134,12.378-14.134h0.265
		c6.814,0,12.379,6.312,12.379,14.134v211.714c0,7.779-5.527,14.133-12.379,14.133h-0.265c-6.814,0-12.378-6.312-12.378-14.133
		V761.16z"/>
</g>
<g>
	<path fill="none" d="M292.313,609.522h-84.688c-6.864,0-12.481,5.616-12.481,12.48v17.162h109.652v-17.162
		C304.795,615.139,299.179,609.522,292.313,609.522z"/>
	<path fill="#939598" d="M398.594,639.165H329.82v-23.401c0-17.225-13.979-31.205-31.203-31.205h-97.233
		c-17.226,0-31.204,13.98-31.204,31.205v23.401h-68.773c-25.402,0-45.995,9.776-45.995,35.178v10.296
		c0,25.401,15.185,23.278,40.587,23.278h308.004c25.402,0,40.587,2.123,40.587-23.278v-10.296
		C444.589,648.941,423.995,639.165,398.594,639.165z M195.143,622.003c0-6.864,5.617-12.48,12.481-12.48h84.688
		c6.866,0,12.482,5.616,12.482,12.48v17.162H195.143V622.003z"/>
	<path fill="#939598" d="M79.085,1033.563c0,25.402,19.661,45.995,43.913,45.995c73.103,0,180.902,0,254.004,0
		c24.253,0,43.913-20.593,43.913-45.995c0-96.938,0-277.949,0-308.339H79.085C79.085,755.614,79.085,936.626,79.085,1033.563z
		 M314.246,761.16c0-7.779,5.526-14.134,12.378-14.134h0.266c6.813,0,12.377,6.312,12.377,14.134v211.714
		c0,7.779-5.526,14.133-12.377,14.133h-0.266c-6.814,0-12.378-6.312-12.378-14.133V761.16z M237.488,761.16
		c0-7.779,5.527-14.134,12.379-14.134h0.266c6.813,0,12.377,6.312,12.377,14.134v211.714c0,7.779-5.526,14.133-12.377,14.133h-0.266
		c-6.813,0-12.379-6.312-12.379-14.133V761.16z M160.732,761.16c0-7.779,5.526-14.134,12.378-14.134h0.265
		c6.814,0,12.379,6.312,12.379,14.134v211.714c0,7.779-5.527,14.133-12.379,14.133h-0.265c-6.814,0-12.378-6.312-12.378-14.133
		V761.16z"/>
</g>
</svg>
