<?xml version="1.0" encoding="utf-8"?>
<!-- Generator: Adobe Illustrator 16.0.0, SVG Export Plug-In . SVG Version: 6.00 Build 0)  -->
<!DOCTYPE svg PUBLIC "-//W3C//DTD SVG 1.1//EN" "http://www.w3.org/Graphics/SVG/1.1/DTD/svg11.dtd">
<svg version="1.1" id="레이어_1" xmlns="http://www.w3.org/2000/svg" xmlns:xlink="http://www.w3.org/1999/xlink" x="0px"
	 y="0px" width="500px" height="500px" viewBox="0 0 500 500" enable-background="new 0 0 500 500" xml:space="preserve">
<g>
	<path fill="#FFFFFF" stroke="#58595B" stroke-width="18" stroke-linejoin="round" stroke-miterlimit="10" d="M-609.221,233.579
		c0,27.267-22.103,49.371-49.367,49.371s-49.366-22.104-49.366-49.371c0-27.264,22.102-49.367,49.366-49.367
		S-609.221,206.315-609.221,233.579z"/>
	<path fill="#FFFFFF" stroke="#58595B" stroke-width="18" stroke-linejoin="round" stroke-miterlimit="10" d="M-947.807,131.66
		c-56.287,0-101.918,45.631-101.918,101.919c0,56.292,45.632,101.923,101.918,101.923h122.624V131.66H-947.807z"/>
	<path fill="#FFFFFF" stroke="#58595B" stroke-width="18" stroke-linejoin="round" stroke-miterlimit="10" d="M-926.308,428.864
		c0,31.004,22.638,56.136,50.562,56.136c27.926,0,50.563-25.132,50.563-56.136v-93.362h-101.124V428.864z"/>
	<path fill="#FFFFFF" stroke="#58595B" stroke-width="18" stroke-linejoin="round" stroke-miterlimit="10" d="M-739.191,98.217
		c-24.145,17.56-85.992,33.443-85.992,33.443v101.918V335.5c0,0,61.848,15.884,85.992,33.443
		c24.146,17.561,71.665,81.217,71.665,81.217V233.579V17C-667.526,17-715.045,80.657-739.191,98.217z"/>
</g>
<g>
	<g>
		<path fill="#FFFFFF" stroke="#58595B" stroke-width="18" stroke-miterlimit="10" d="M-93.209,234.484h-389.64v201.348h133.962
			V372.87c0-30.623,27.245-55.447,60.858-55.447c33.609,0,60.858,24.824,60.858,55.447v62.962h133.961V234.484z"/>
	</g>
	<path fill="#FFFFFF" stroke="#58595B" stroke-width="18" stroke-linejoin="round" stroke-miterlimit="10" d="M-57.061,206.25
		l-71.533-142.082h-318.869l-71.564,142.082v0.001c0,38.758,33.745,70.181,75.37,70.181c41.626,0,77.469-31.423,77.469-70.181h-0.11
		c0,38.758,35.842,70.181,77.468,70.181c41.628,0,77.468-31.423,77.468-70.181l0,0c0,38.758,37.395,70.181,79.021,70.181
		c41.625,0,75.37-31.423,75.37-70.182H-57.061z"/>
	
		<line fill="#FFFFFF" stroke="#58595B" stroke-width="18" stroke-miterlimit="10" x1="-366.251" y1="217.06" x2="-366.251" y2="64.474"/>
	
		<line fill="#FFFFFF" stroke="#58595B" stroke-width="18" stroke-miterlimit="10" x1="-211.309" y1="216.928" x2="-211.309" y2="64.343"/>
</g>
<g>
	<path fill="none" stroke="#58595B" stroke-width="18" stroke-linejoin="round" stroke-miterlimit="10" d="M436.525,435.629
		c0,0.496-0.4,0.896-0.896,0.896H64.371c-0.496,0-0.896-0.4-0.896-0.896V64.37c0-0.495,0.4-0.896,0.896-0.896h371.258
		c0.496,0,0.896,0.401,0.896,0.896V435.629z"/>
	<g>
		<path fill="#58595B" d="M217.995,140.622v78.218h-78.216v-78.218H217.995 M235.723,122.622H122.054
			c-0.152,0-0.274,0.123-0.274,0.275v113.669c0,0.151,0.122,0.274,0.274,0.274h113.669c0.152,0,0.272-0.123,0.272-0.274V122.897
			C235.995,122.745,235.875,122.622,235.723,122.622L235.723,122.622z"/>
	</g>
	
		<line fill="none" stroke="#58595B" stroke-width="18" stroke-linejoin="round" stroke-miterlimit="10" x1="121.912" y1="294.75" x2="378.102" y2="294.75"/>
	
		<line fill="none" stroke="#58595B" stroke-width="18" stroke-linejoin="round" stroke-miterlimit="10" x1="121.912" y1="362.8" x2="378.102" y2="362.8"/>
</g>
<g>
	<g>
		<path fill="#58595B" d="M860.445,367.871c40.332-66.895,91.309-160.938,91.309-209.277c0-81.543-66.309-147.852-147.852-147.852
			S656.051,77.051,656.051,158.594c0,48.34,50.977,142.383,91.309,209.277c-47.852,3.613-156.738,16.602-156.738,59.668
			c0,42.383,110.547,61.719,213.379,61.719c102.734,0,213.379-19.336,213.379-61.719
			C1017.281,384.473,908.297,371.484,860.445,367.871L860.445,367.871z M676.461,158.594c0-70.313,57.227-127.539,127.441-127.539
			c70.313,0,127.539,57.227,127.539,127.539c0,61.426-97.852,215.527-127.539,260.84
			C774.215,374.121,676.461,220.02,676.461,158.594z M803.902,468.848c-124.902,0-192.969-27.344-192.969-41.406
			c0-10.84,44.922-34.18,148.438-40.137c19.434,31.348,34.18,53.516,36.133,56.152c2.637,3.516,10.352,7.715,16.895,0
			c2.051-2.441,16.699-24.805,36.133-56.152c103.516,5.957,148.438,29.199,148.438,40.137
			C996.871,441.602,928.805,468.848,803.902,468.848L803.902,468.848z"/>
		<path fill="#58595B" d="M868.258,158.594c0-35.547-28.809-64.355-64.355-64.355s-64.355,28.809-64.355,64.355
			s28.809,64.355,64.355,64.355S868.258,194.141,868.258,158.594z M759.859,158.594c0-24.316,19.727-44.043,44.043-44.043
			s44.043,19.727,44.043,44.043s-19.727,44.043-44.043,44.043S759.859,182.91,759.859,158.594z"/>
	</g>
</g>
</svg>
